<svg xmlns="http://www.w3.org/2000/svg" viewBox="0 0 100 100" width="300px" height="300px">
   <path d="M51.999,98c-21.656,0-37.476-27.316-37.476-51.628c0-23.67,15.594-42.374,37.476-42.374s37.476,18.704,37.476,42.374C89.474,70.684,73.655,98,51.999,98z" opacity=".35"/>

   <path fill="#f2f2f2" d="M50.001,96.002c-21.656,0-37.476-27.316-37.476-51.628C12.526,20.704,28.119,2,50.001,2s37.476,18.704,37.476,42.374C87.477,68.687,71.657,96.002,50.001,96.002z"/>

   <path fill="#d9eeff" d="M50.001,8.493c-18.231,0-30.983,13.468-30.983,35.881s14.946,45.135,30.983,45.135s30.983-22.722,30.983-45.135S68.229,8.493,50.001,8.493z"/>

   <g opacity=".35">
       <path fill="#40396e" d="M81.832,41.262c-7.765-5.317-15.383-8.918-22.453-11.333c3.362-2.086,9.836-5.226,16.853-3.953c0.813,0.147,1.596-0.392,1.744-1.207c0.148-0.815-0.392-1.596-1.207-1.744c-9.976-1.814-18.606,3.922-21.048,5.749c-5.046-1.481-9.753-2.373-13.967-2.874c3.157-3.341,11.222-10.185,24.825-10.901c0.828-0.043,1.463-0.75,1.419-1.577c-0.043-0.828-0.765-1.453-1.577-1.419C48.794,12.93,39.907,23.18,38.085,25.543c-9.641-0.711-15.96,0.552-16.51,0.669c-0.81,0.171-1.327,0.966-1.157,1.776c0.171,0.81,0.963,1.33,1.776,1.159c0.28-0.06,28.388-5.646,57.942,14.591C80.396,43.915,80.69,44,80.982,44c0.479,0,0.949-0.228,1.239-0.652C82.689,42.664,82.515,41.73,81.832,41.262z"/>
       
       <path fill="#40396e" d="M74.813,68.332c-15.234-0.647-39.709-13.233-39.955-13.36c-0.736-0.382-1.641-0.093-2.021,0.643s-0.093,1.641,0.643,2.021c1.026,0.531,25.308,13.017,41.207,13.693c0.021,0.001,0.043,0.001,0.064,0.001c0.799,0,1.463-0.63,1.498-1.437C76.283,69.066,75.641,68.367,74.813,68.332z"/>
       
       <path fill="#40396e" d="M65.44,81.199c-31.062-3.672-41.758-18.823-41.863-18.976c-0.465-0.683-1.395-0.861-2.081-0.399c-0.686,0.464-0.866,1.396-0.402,2.083c0.452,0.668,11.449,16.423,43.993,20.271c0.06,0.007,0.119,0.01,0.178,0.01c0.75,0,1.397-0.561,1.488-1.324C66.851,82.042,66.263,81.296,65.44,81.199z"/>
   </g>

   <path fill="#82792c" d="M51.463,39.989c-24,0-31.982,3.652-31.982,3.652v11.707c0,0,8.982,3.652,31.982,3.652c21,0,29.056-3.652,29.056-3.652V43.641C80.519,43.641,73.463,39.989,51.463,39.989z"/>

   <path fill="#ffe385" d="M62.958,55c-4.689,0-6.956-4-6.956-4l16.002-6C72.005,45,69.832,55,62.958,55z M27.995,45l16.002,6c0,0-2.269,4-6.956,4C30.168,55,27.995,45,27.995,45z"/>

   <path fill="none" stroke="#40396e" stroke-linecap="round" stroke-linejoin="round" stroke-miterlimit="10" stroke-width="3" d="M50.001,8.493c-18.231,0-30.983,13.468-30.983,35.881s14.946,45.135,30.983,45.135s30.983-22.722,30.983-45.135S68.229,8.493,50.001,8.493z"/>
</svg>