<svg xmlns="http://www.w3.org/2000/svg" viewBox="0 0 100 100" width="300px" height="300px">
   <path d="M80.5,95c-3.584,0-6.5-2.916-6.5-6.5c0-2.819-0.053-5.466-0.148-7.951c-0.747,0.801-1.5,1.551-2.219,2.268c-1.882,1.875-3.508,3.494-4.275,5.225C65.484,92.269,61.324,95,56.762,95h-9.523c-4.562,0-8.723-2.731-10.597-6.959c-0.767-1.73-2.393-3.349-4.273-5.223c-0.72-0.717-1.473-1.467-2.22-2.269C30.053,83.034,30,85.681,30,88.5c0,3.584-2.916,6.5-6.5,6.5c-3.423,0-6.236-2.659-6.482-6.021C16.847,88.993,16.674,89,16.5,89c-3.584,0-6.5-2.916-6.5-6.5c0-3.297,0.142-6.465,0.396-9.501c-0.271-0.004-0.547-0.026-0.82-0.065c-1.713-0.245-3.232-1.144-4.274-2.532c-1.043-1.389-1.481-3.102-1.235-4.821c4.759-33.314,20.743-44.672,25.478-47.346c3.84-3.654,8.875-6.216,14.614-7.428c0.445-0.093,0.895-0.14,1.342-0.14c1.486,0,2.272,4.162,3.425,5.098c1.487,1.204,3.028-0.667,3.074,1.243c0.001,0,0.003,0,0.004,0c0.046-1.91,0.917-3.686,2.407-4.892c1.146-0.932,2.602-1.449,4.092-1.449c0.447,0,0.896,0.046,1.334,0.138c5.747,1.213,10.782,3.776,14.622,7.43c4.734,2.674,20.719,14.032,25.479,47.347c0.245,1.719-0.193,3.431-1.236,4.82c-1.042,1.388-2.562,2.288-4.28,2.533c-0.268,0.039-0.544,0.06-0.814,0.064C93.858,76.033,94,79.204,94,82.5c0,3.584-2.916,6.5-6.5,6.5c-0.174,0-0.347-0.007-0.518-0.021C86.736,92.341,83.923,95,80.5,95z" opacity=".35"/>

   <path fill="#f2f2f2" d="M78.5,93c-3.584,0-6.5-2.916-6.5-6.5c0-2.819-0.053-5.466-0.148-7.951c-0.747,0.801-1.5,1.551-2.219,2.268c-1.882,1.875-3.508,3.494-4.275,5.225C63.484,90.269,59.324,93,54.762,93h-9.523c-4.562,0-8.723-2.731-10.597-6.959c-0.767-1.73-2.393-3.349-4.273-5.223c-0.72-0.717-1.473-1.467-2.22-2.269C28.053,81.034,28,83.681,28,86.5c0,3.584-2.916,6.5-6.5,6.5c-3.423,0-6.236-2.659-6.482-6.021C14.847,86.993,14.674,87,14.5,87C10.916,87,8,84.084,8,80.5c0-3.297,0.142-6.465,0.396-9.501c-0.271-0.004-0.547-0.026-0.82-0.065c-1.713-0.245-3.232-1.144-4.274-2.532c-1.043-1.389-1.481-3.102-1.235-4.821c4.759-33.314,20.743-44.672,25.478-47.346c3.84-3.654,8.875-6.216,14.614-7.428c0.445-0.093,0.895-0.14,1.342-0.14c1.486,0,2.941,0.515,4.095,1.451c1.487,1.204,2.358,2.979,2.404,4.889c0.001,0,0.003,0,0.004,0c0.046-1.91,0.917-3.686,2.407-4.892c1.146-0.932,2.602-1.449,4.092-1.449c0.447,0,0.896,0.046,1.334,0.138c5.747,1.213,10.782,3.776,14.622,7.43c4.734,2.674,20.719,14.032,25.479,47.347c0.245,1.719-0.193,3.431-1.236,4.82c-1.042,1.388-2.562,2.288-4.28,2.533c-0.268,0.039-0.544,0.06-0.814,0.064C91.858,74.033,92,77.204,92,80.5c0,3.584-2.916,6.5-6.5,6.5c-0.174,0-0.347-0.007-0.518-0.021C84.736,90.341,81.923,93,78.5,93z"/>

   <path fill="#9aa2e6" d="M74,35.5c0-11.001-7.405-18.202-17.5-20.334v7.227C54.376,21.786,52.141,21.5,50,21.5s-4.376,0.286-6.5,0.893v-7.227C33.405,17.298,26,24.499,26,35.5c0,5.377,1.769,10.834,4.755,15.422C29.867,54.108,28.5,59.772,28.5,64.5c0,8.818,8.942,11.822,12.084,18.907c0.824,1.858,2.621,3.093,4.654,3.093h9.524c2.033,0,3.83-1.235,4.654-3.093C62.558,76.322,71.5,73.318,71.5,64.5c0-4.728-1.367-10.392-2.255-13.578C72.231,46.334,74,40.877,74,35.5z"/>

   <ellipse cx="41.5" cy="57.5" fill="#40396e" rx="5.5" ry="6.5"/>
   <ellipse cx="58.5" cy="57.5" fill="#40396e" rx="5.5" ry="6.5"/>

   <path fill="#9aa2e6" d="M50,61c-12.878,0-22.5-13.463-22.5-25.5c0-9.072,5.381-15.846,14.5-18.421L46,26h7l5-8.921c9.119,2.575,14.5,9.349,14.5,18.421C72.5,47.537,62.878,61,50,61z"/>

   <path fill="#707cc0" d="M50,54c-8.586,0-15.5-9.976-15.5-18.235C34.5,26.343,42.85,23,50,23s15.5,3.343,15.5,12.765C65.5,44.024,58.586,54,50,54z"/>

   <path fill="#707cc0" d="M57,87H43V70.556C43,68.04,45.04,66,47.556,66h4.888C54.96,66,57,68.04,57,70.556V87z"/>

   <path fill="none" stroke="#40396e" stroke-linecap="round" stroke-linejoin="round" stroke-miterlimit="10" stroke-width="3" d="M74,35.5c0-11.001-7.405-18.202-17.5-20.334v7.227C54.376,21.786,52.141,21.5,50,21.5s-4.376,0.286-6.5,0.893v-7.227C33.405,17.298,26,24.499,26,35.5c0,5.377,1.769,10.834,4.755,15.422C29.867,54.108,28.5,59.772,28.5,64.5c0,8.818,8.942,11.822,12.084,18.907c0.824,1.858,2.621,3.093,4.654,3.093h9.524c2.033,0,3.83-1.235,4.654-3.093C62.558,76.322,71.5,73.318,71.5,64.5c0-4.728-1.367-10.392-2.255-13.578C72.231,46.334,74,40.877,74,35.5z"/>

   <path fill="none" stroke="#40396e" stroke-linecap="round" stroke-linejoin="round" stroke-miterlimit="10" stroke-width="3" d="M27.5,44.237c0,0-6,11.763-6,42.263"/>

   <path fill="none" stroke="#40396e" stroke-linecap="round" stroke-linejoin="round" stroke-miterlimit="10" stroke-width="3" d="M25.886,33.548C23.437,37.904,14.5,55.042,14.5,80.5"/>

   <path fill="none" stroke="#40396e" stroke-linecap="round" stroke-linejoin="round" stroke-miterlimit="10" stroke-width="3" d="M31.5,21.5c0,0-18,8-23,43"/>

   <path fill="none" stroke="#40396e" stroke-linecap="round" stroke-linejoin="round" stroke-miterlimit="10" stroke-width="3" d="M72.5,44.237c0,0,6,11.763,6,42.263"/>

   <path fill="none" stroke="#40396e" stroke-linecap="round" stroke-linejoin="round" stroke-miterlimit="10" stroke-width="3" d="M74.114,33.548C76.563,37.904,85.5,55.042,85.5,80.5"/>

   <path fill="none" stroke="#40396e" stroke-linecap="round" stroke-linejoin="round" stroke-miterlimit="10" stroke-width="3" d="M68.5,21.5c0,0,18,8,23,43"/>
</svg>